<?xml version="1.0" encoding="UTF-8" standalone="no"?>
<svg
   xmlns:i="http://ns.adobe.com/AdobeIllustrator/10.0/"
   xmlns:dc="http://purl.org/dc/elements/1.1/"
   xmlns:cc="http://creativecommons.org/ns#"
   xmlns:rdf="http://www.w3.org/1999/02/22-rdf-syntax-ns#"
   xmlns:svg="http://www.w3.org/2000/svg"
   xmlns="http://www.w3.org/2000/svg"
   xmlns:sodipodi="http://sodipodi.sourceforge.net/DTD/sodipodi-0.dtd"
   xmlns:inkscape="http://www.inkscape.org/namespaces/inkscape"
   height="100px"
   width="100px"
   fill="#000000"
   version="1.1"
   x="0px"
   y="0px"
   viewBox="0 0 100 100"
   style="enable-background:new 0 0 100 100;"
   xml:space="preserve"
   id="svg865"
   sodipodi:docname="international.svg"
   inkscape:version="1.0.2-2 (e86c870879, 2021-01-15)"><metadata
     id="metadata871"><rdf:RDF><cc:Work
         rdf:about=""><dc:format>image/svg+xml</dc:format><dc:type
           rdf:resource="http://purl.org/dc/dcmitype/StillImage" /></cc:Work></rdf:RDF></metadata><defs
     id="defs869" /><sodipodi:namedview
     pagecolor="#ffffff"
     bordercolor="#666666"
     borderopacity="1"
     objecttolerance="10"
     gridtolerance="10"
     guidetolerance="10"
     inkscape:pageopacity="0"
     inkscape:pageshadow="2"
     inkscape:window-width="1920"
     inkscape:window-height="1020"
     id="namedview867"
     showgrid="false"
     inkscape:zoom="7.66"
     inkscape:cx="50"
     inkscape:cy="50"
     inkscape:window-x="0"
     inkscape:window-y="0"
     inkscape:window-maximized="0"
     inkscape:current-layer="svg865" /><g
     id="g863"
     style="fill:#004653;fill-opacity:1"><g
       i:extraneous="self"
       id="g861"
       style="fill:#004653;fill-opacity:1"><g
         id="g859"
         style="fill:#004653;fill-opacity:1"><path
           d="M50,16.1c-18.7,0-33.9,15.2-33.9,33.9S31.3,83.9,50,83.9S83.9,68.7,83.9,50S68.7,16.1,50,16.1z M76.4,38.1H62.3     c-0.8-6.3-2.3-11.9-4.5-16C66.1,24.5,72.9,30.4,76.4,38.1z M78.9,50c0,2.4-0.3,4.7-0.9,6.9H62.8C63,54.6,63,52.3,63,50     s-0.1-4.6-0.3-6.9h15.3C78.6,45.3,78.9,47.6,78.9,50z M50,78.9c-2.1,0-5.7-5.9-7.3-17.1h14.5C55.7,73,52.1,78.9,50,78.9z      M42.2,56.9c-0.2-2.2-0.3-4.5-0.3-6.9s0.1-4.8,0.3-6.9h15.6c0.2,2.2,0.3,4.5,0.3,6.9s-0.1,4.8-0.3,6.9H42.2z M21.1,50     c0-2.4,0.3-4.7,0.9-6.9h15.3C37,45.4,37,47.7,37,50s0.1,4.6,0.3,6.9H21.9C21.4,54.7,21.1,52.4,21.1,50z M50,21     c2.1,0,5.7,5.9,7.3,17.1H42.7C44.3,27,47.9,21,50,21z M42.2,22.1c-2.2,4-3.7,9.7-4.5,16H23.6C27.1,30.4,33.9,24.5,42.2,22.1z      M23.6,61.9h14.1c0.8,6.3,2.3,11.9,4.5,16C33.9,75.5,27.1,69.6,23.6,61.9z M57.8,77.9c2.2-4,3.7-9.7,4.5-16h14.1     C72.9,69.6,66.1,75.5,57.8,77.9z"
           id="path853"
           style="fill:#004653;fill-opacity:1" /><path
           d="M19.9,19.9C35.5,4.3,60.3,3.4,77,17.2l-1.7,1.7c-0.5,0.5-0.7,1.2-0.5,1.9c0.2,0.7,0.8,1.2,1.5,1.3l8.7,1.6     c0.1,0,0.2,0,0.3,0c0.5,0,1-0.2,1.3-0.5c0.4-0.4,0.6-1.1,0.5-1.7l-1.6-8.7c-0.1-0.7-0.6-1.2-1.3-1.4c-0.7-0.2-1.4,0-1.9,0.5l-2,2     C61.9-2,34-1.1,16.4,16.4C3,29.9-1.2,50,5.9,67.7c0.4,1,1.3,1.6,2.3,1.6c0.3,0,0.6-0.1,0.9-0.2c1.3-0.5,1.9-2,1.4-3.2     C4.2,50,7.9,32,19.9,19.9z"
           id="path855"
           style="fill:#004653;fill-opacity:1" /><path
           d="M94.1,32.3c-0.5-1.3-2-1.9-3.2-1.4c-1.3,0.5-1.9,2-1.4,3.2C95.8,50,92.1,68,80.1,80C64.5,95.6,39.7,96.6,23,82.8l1.7-1.7     c0.5-0.5,0.7-1.2,0.5-1.9c-0.2-0.7-0.8-1.2-1.5-1.3l-8.7-1.6c-0.6-0.1-1.2,0.1-1.7,0.5c-0.4,0.4-0.6,1.1-0.5,1.7l1.6,8.7     c0.1,0.7,0.6,1.2,1.3,1.4c0.2,0.1,0.4,0.1,0.6,0.1c0.5,0,1-0.2,1.3-0.5l2-2c8.8,7.4,19.7,11.1,30.5,11.1     c12.2,0,24.3-4.6,33.6-13.9C97,70.1,101.2,50,94.1,32.3z"
           id="path857"
           style="fill:#004653;fill-opacity:1" /></g></g></g></svg>
