<?xml version="1.0" encoding="UTF-8" standalone="no"?>
<svg
   xmlns:dc="http://purl.org/dc/elements/1.1/"
   xmlns:cc="http://creativecommons.org/ns#"
   xmlns:rdf="http://www.w3.org/1999/02/22-rdf-syntax-ns#"
   xmlns:svg="http://www.w3.org/2000/svg"
   xmlns="http://www.w3.org/2000/svg"
   xmlns:sodipodi="http://sodipodi.sourceforge.net/DTD/sodipodi-0.dtd"
   xmlns:inkscape="http://www.inkscape.org/namespaces/inkscape"
   height="100px"
   width="100px"
   fill="#000000"
   xml:space="preserve"
   version="1.1"
   style="shape-rendering:geometricPrecision;text-rendering:geometricPrecision;image-rendering:optimizeQuality;"
   viewBox="0 0 847 847"
   x="0px"
   y="0px"
   fill-rule="evenodd"
   clip-rule="evenodd"
   id="svg895"
   sodipodi:docname="langues.svg"
   inkscape:version="1.0.2-2 (e86c870879, 2021-01-15)"><metadata
     id="metadata899"><rdf:RDF><cc:Work
         rdf:about=""><dc:format>image/svg+xml</dc:format><dc:type
           rdf:resource="http://purl.org/dc/dcmitype/StillImage" /></cc:Work></rdf:RDF></metadata><sodipodi:namedview
     pagecolor="#ffffff"
     bordercolor="#666666"
     borderopacity="1"
     objecttolerance="10"
     gridtolerance="10"
     guidetolerance="10"
     inkscape:pageopacity="0"
     inkscape:pageshadow="2"
     inkscape:window-width="1920"
     inkscape:window-height="986"
     id="namedview897"
     showgrid="false"
     inkscape:zoom="8"
     inkscape:cx="50"
     inkscape:cy="50"
     inkscape:window-x="-11"
     inkscape:window-y="-11"
     inkscape:window-maximized="1"
     inkscape:current-layer="svg895" /><defs
     id="defs889"><style
       type="text/css"
       id="style887">
   
    .fil0 {fill:#000000}
   
  </style></defs><g
     id="g893"
     style="fill:#004653;fill-opacity:1"><path
       class="fil0"
       d="M741 626c-4,29 -13,49 -27,79l-46 104 -11 -113c-3,-21 -6,-48 -15,-70l-231 0c-27,0 -48,-21 -48,-48l0 -175 30 0 0 175c0,10 8,18 18,18l249 0c16,25 23,59 26,97 12,-26 27,-50 27,-97l43 0c10,0 18,-8 18,-18l0 -260c0,-10 -8,-18 -18,-18l-345 0c-10,0 -18,8 -18,18l0 37 -30 0 0 -37c0,-26 21,-48 48,-48l345 0c27,0 48,22 48,48l0 260c0,27 -21,48 -48,48l-15 0zm-635 -232c4,28 13,48 27,79l46 104 11 -114c2,-21 6,-48 15,-69l231 0c26,0 48,-22 48,-49l0 -36 -30 0 0 36c0,10 -8,19 -18,19l-249 0c-16,24 -23,59 -27,96 -12,-26 -26,-50 -26,-96l-43 0c-10,0 -19,-9 -19,-19l0 -259c0,-10 9,-19 19,-19l345 0c10,0 18,9 18,19l0 175 30 0 0 -175c0,-27 -22,-49 -48,-49l-345 0c-27,0 -49,22 -49,49l0 259c0,27 22,49 49,49l15 0zm254 -78c-38,-4 -71,-20 -97,-44 -26,24 -59,40 -96,44l0 -30c29,-4 55,-17 76,-36 -19,-25 -31,-54 -36,-85l-40 0 0 -30 81 0 0 -32 30 0 0 32 81 0 0 30 -39 0c-5,31 -18,60 -37,85 21,19 48,32 77,36l0 30zm-123 -151c5,23 14,44 26,61 13,-17 22,-38 26,-61l-52 0zm246 389l80 -212 41 0 80 212 -32 0 -20 -51 -97 0 -20 51 -32 0zm138 -81l-38 -100 -37 100 75 0z"
       id="path891"
       style="fill:#004653;fill-opacity:1" /></g></svg>
