<svg height='100px' width='100px'  fill="#000000" xmlns="http://www.w3.org/2000/svg" viewBox="0 0 64 64" x="0px" y="0px"><title>literature, references, journal, library, books, education</title><g><path d="M8.14,25.54V17.65a1,1,0,0,1,1-1h2.72v9.89H9.14A1,1,0,0,1,8.14,25.54ZM7.47,30.8v7.64H9.62v-9.9H2.74a1,1,0,0,0-1,1v7.9a1,1,0,0,0,1,1H5.47V30.8a1,1,0,0,1,2,0ZM6,41.44v7.9a1,1,0,0,0,1,1H9.73v-9.9H7A1,1,0,0,0,6,41.44Zm35.42,0v7.9a1,1,0,0,1-1,1H15.89V43.58a1,1,0,0,0-2,0v6.76H11.73v-9.9h28.7A1,1,0,0,1,41.43,41.44Zm-7,1.83a1,1,0,0,0-2,0v4.24a1,1,0,0,0,2,0Zm4.26,0a1,1,0,0,0-2,0v4.24a1,1,0,0,0,2,0Zm-2.56-4.83H11.62v-9.9H36.17a1,1,0,0,1,1,1v7.9A1,1,0,0,1,36.17,38.44Zm-6-7.07a1,1,0,0,0-2,0v4.24a1,1,0,0,0,2,0Zm4.27,0a1,1,0,0,0-2,0v4.24a1,1,0,0,0,2,0Zm9.09-13.72v7.89a1,1,0,0,1-1,1H13.87V16.65H16v8.13a1,1,0,0,0,2,0V16.65H42.56A1,1,0,0,1,43.56,17.65Zm-2.7,1.83a1,1,0,0,0-2,0v4.23a1,1,0,0,0,2,0ZM61.22,42.14l-.34-1.65-9.7,1.94.25,1.23.18.89,9.7-1.95Zm-.73-3.62-9.7,1.95L46,16.41a1,1,0,0,1,.79-1.18l7.75-1.55a1,1,0,0,1,1.17.78Zm-11.23-19,.2,0,4.16-.83a1,1,0,1,0-.4-2l-4.15.83a1,1,0,0,0,.19,2Zm6,2.15a1,1,0,0,0-1.18-.78l-4.15.83a1,1,0,0,0,.19,2l.2,0,4.16-.83A1,1,0,0,0,55.24,21.65ZM61.7,44.56,52,46.51l.54,2.67a1,1,0,0,0,1.17.78l7.74-1.55a1,1,0,0,0,.79-1.18Z"></path></g></svg>