<?xml version="1.0" encoding="UTF-8" standalone="no"?>
<svg
   xmlns:dc="http://purl.org/dc/elements/1.1/"
   xmlns:cc="http://creativecommons.org/ns#"
   xmlns:rdf="http://www.w3.org/1999/02/22-rdf-syntax-ns#"
   xmlns:svg="http://www.w3.org/2000/svg"
   xmlns="http://www.w3.org/2000/svg"
   xmlns:sodipodi="http://sodipodi.sourceforge.net/DTD/sodipodi-0.dtd"
   xmlns:inkscape="http://www.inkscape.org/namespaces/inkscape"
   height="100px"
   width="100px"
   fill="#000000"
   viewBox="0 0 65 65"
   version="1.1"
   xml:space="preserve"
   style=""
   x="0px"
   y="0px"
   fill-rule="evenodd"
   clip-rule="evenodd"
   stroke-linejoin="round"
   stroke-miterlimit="2"
   id="svg885"
   sodipodi:docname="other.svg"
   inkscape:version="1.0.2-2 (e86c870879, 2021-01-15)"><metadata
     id="metadata891"><rdf:RDF><cc:Work
         rdf:about=""><dc:format>image/svg+xml</dc:format><dc:type
           rdf:resource="http://purl.org/dc/dcmitype/StillImage" /></cc:Work></rdf:RDF></metadata><defs
     id="defs889" /><sodipodi:namedview
     pagecolor="#ffffff"
     bordercolor="#666666"
     borderopacity="1"
     objecttolerance="10"
     gridtolerance="10"
     guidetolerance="10"
     inkscape:pageopacity="0"
     inkscape:pageshadow="2"
     inkscape:window-width="1920"
     inkscape:window-height="986"
     id="namedview887"
     showgrid="false"
     inkscape:zoom="2"
     inkscape:cx="37.59071"
     inkscape:cy="81.085353"
     inkscape:window-x="-11"
     inkscape:window-y="-11"
     inkscape:window-maximized="1"
     inkscape:current-layer="svg885" /><rect
     x="0.391"
     y="0.53500003"
     width="64"
     height="64"
     fill="none"
     id="rect863" /><g
     transform="matrix(0.743353,0,0,0.743353,-90.6261,-118.093)"
     id="g867"
     style="fill:#004653;fill-opacity:1"><path
       d="m 165.49,189.574 c -7.209,0 -13.061,5.852 -13.061,13.06 0,7.208 5.852,13.06 13.061,13.06 7.208,0 13.06,-5.852 13.06,-13.06 0,-7.208 -5.852,-13.06 -13.06,-13.06 z m 0,3.923 c 5.042,0 9.136,4.094 9.136,9.137 0,5.042 -4.094,9.136 -9.136,9.136 -5.043,0 -9.137,-4.094 -9.137,-9.136 0,-5.043 4.094,-9.137 9.137,-9.137 z"
       id="path865"
       style="fill:#004653;fill-opacity:1" /></g><g
     transform="matrix(0.743353,0,0,0.743353,-112.376,-118.093)"
     id="g871"
     style="fill:#004653;fill-opacity:1"><path
       d="m 173.559,198.348 c 0.682,1.278 1.067,2.737 1.067,4.286 0,5.042 -4.094,9.136 -9.136,9.136 -5.043,0 -9.137,-4.094 -9.137,-9.136 0,-5.043 4.094,-9.137 9.137,-9.137 2.072,0 3.984,0.691 5.517,1.856 0.862,0.655 2.094,0.487 2.749,-0.376 0.655,-0.862 0.487,-2.094 -0.376,-2.748 -2.193,-1.666 -4.927,-2.655 -7.89,-2.655 -7.209,0 -13.061,5.852 -13.061,13.06 0,7.208 5.852,13.06 13.061,13.06 7.208,0 13.06,-5.852 13.06,-13.06 0,-2.216 -0.554,-4.303 -1.528,-6.132 -0.51,-0.955 -1.699,-1.318 -2.654,-0.808 -0.956,0.509 -1.318,1.698 -0.809,2.654 z"
       id="path869"
       style="fill:#004653;fill-opacity:1" /></g><g
     transform="matrix(0.743353,0,0,0.743353,-68.8761,-118.093)"
     id="g875"
     style="fill:#004653;fill-opacity:1"><path
       d="m 156.741,205.275 c -0.253,-0.836 -0.388,-1.723 -0.388,-2.641 0,-5.043 4.094,-9.137 9.137,-9.137 5.042,0 9.136,4.094 9.136,9.137 0,5.042 -4.094,9.136 -9.136,9.136 -1.083,0 -1.962,0.879 -1.962,1.962 0,1.083 0.879,1.962 1.962,1.962 7.208,0 13.06,-5.852 13.06,-13.06 0,-7.208 -5.852,-13.06 -13.06,-13.06 -7.209,0 -13.061,5.852 -13.061,13.06 0,1.312 0.195,2.58 0.556,3.775 0.313,1.037 1.408,1.624 2.445,1.311 1.036,-0.313 1.624,-1.408 1.311,-2.445 z"
       id="path873"
       style="fill:#004653;fill-opacity:1" /></g><g
     transform="matrix(0.743353,0,0,0.743353,-68.8761,-118.093)"
     id="g879"
     style="fill:#004653;fill-opacity:1"><path
       d="m 160.34,210.18 c -0.523,-0.358 -1.006,-0.768 -1.443,-1.224 -0.75,-0.781 -1.993,-0.807 -2.774,-0.057 -0.781,0.749 -0.807,1.992 -0.057,2.774 0.623,0.649 1.312,1.234 2.057,1.744 0.894,0.612 2.116,0.383 2.728,-0.51 0.611,-0.894 0.382,-2.116 -0.511,-2.727 z"
       id="path877"
       style="fill:#004653;fill-opacity:1" /></g></svg>
