<svg height='100px' width='100px'  fill="#000000" xmlns="http://www.w3.org/2000/svg" xmlns:xlink="http://www.w3.org/1999/xlink" xmlns:serif="http://www.serif.com/" viewBox="0 0 65 65" version="1.1" xml:space="preserve" style="" x="0px" y="0px" fill-rule="evenodd" clip-rule="evenodd" stroke-linejoin="round" stroke-miterlimit="2"><g transform="matrix(1,0,0,1,-152,-189)"><g transform="matrix(1,0,0,1,152.391,189.535)"><rect x="0" y="0" width="64" height="64" style="" fill="none"></rect><g transform="matrix(0.743353,0,0,0.743353,-91.0171,-118.628)"><path d="M165.49,189.574C158.281,189.574 152.429,195.426 152.429,202.634C152.429,209.842 158.281,215.694 165.49,215.694C172.698,215.694 178.55,209.842 178.55,202.634C178.55,195.426 172.698,189.574 165.49,189.574ZM165.49,193.497C170.532,193.497 174.626,197.591 174.626,202.634C174.626,207.676 170.532,211.77 165.49,211.77C160.447,211.77 156.353,207.676 156.353,202.634C156.353,197.591 160.447,193.497 165.49,193.497Z"></path></g><g transform="matrix(0.743353,0,0,0.743353,-112.767,-118.628)"><path d="M173.559,198.348C174.241,199.626 174.626,201.085 174.626,202.634C174.626,207.676 170.532,211.77 165.49,211.77C160.447,211.77 156.353,207.676 156.353,202.634C156.353,197.591 160.447,193.497 165.49,193.497C167.562,193.497 169.474,194.188 171.007,195.353C171.869,196.008 173.101,195.84 173.756,194.977C174.411,194.115 174.243,192.883 173.38,192.229C171.187,190.563 168.453,189.574 165.49,189.574C158.281,189.574 152.429,195.426 152.429,202.634C152.429,209.842 158.281,215.694 165.49,215.694C172.698,215.694 178.55,209.842 178.55,202.634C178.55,200.418 177.996,198.331 177.022,196.502C176.512,195.547 175.323,195.184 174.368,195.694C173.412,196.203 173.05,197.392 173.559,198.348Z"></path></g><g transform="matrix(0.743353,0,0,0.743353,-69.2671,-118.628)"><path d="M156.741,205.275C156.488,204.439 156.353,203.552 156.353,202.634C156.353,197.591 160.447,193.497 165.49,193.497C170.532,193.497 174.626,197.591 174.626,202.634C174.626,207.676 170.532,211.77 165.49,211.77C164.407,211.77 163.528,212.649 163.528,213.732C163.528,214.815 164.407,215.694 165.49,215.694C172.698,215.694 178.55,209.842 178.55,202.634C178.55,195.426 172.698,189.574 165.49,189.574C158.281,189.574 152.429,195.426 152.429,202.634C152.429,203.946 152.624,205.214 152.985,206.409C153.298,207.446 154.393,208.033 155.43,207.72C156.466,207.407 157.054,206.312 156.741,205.275Z"></path></g><g transform="matrix(0.743353,0,0,0.743353,-69.2671,-118.628)"><path d="M160.34,210.18C159.817,209.822 159.334,209.412 158.897,208.956C158.147,208.175 156.904,208.149 156.123,208.899C155.342,209.648 155.316,210.891 156.066,211.673C156.689,212.322 157.378,212.907 158.123,213.417C159.017,214.029 160.239,213.8 160.851,212.907C161.462,212.013 161.233,210.791 160.34,210.18Z"></path></g></g></g></svg>