<?xml version="1.0" encoding="UTF-8" standalone="no"?>
<svg
   xmlns:dc="http://purl.org/dc/elements/1.1/"
   xmlns:cc="http://creativecommons.org/ns#"
   xmlns:rdf="http://www.w3.org/1999/02/22-rdf-syntax-ns#"
   xmlns:svg="http://www.w3.org/2000/svg"
   xmlns="http://www.w3.org/2000/svg"
   xmlns:sodipodi="http://sodipodi.sourceforge.net/DTD/sodipodi-0.dtd"
   xmlns:inkscape="http://www.inkscape.org/namespaces/inkscape"
   height="100px"
   width="100px"
   fill="#000000"
   data-name="Layer 1"
   viewBox="0 0 128 128"
   x="0px"
   y="0px"
   version="1.1"
   id="svg2709"
   sodipodi:docname="science.svg"
   inkscape:version="1.0.2-2 (e86c870879, 2021-01-15)">
  <metadata
     id="metadata2715">
    <rdf:RDF>
      <cc:Work
         rdf:about="">
        <dc:format>image/svg+xml</dc:format>
        <dc:type
           rdf:resource="http://purl.org/dc/dcmitype/StillImage" />
      </cc:Work>
    </rdf:RDF>
  </metadata>
  <defs
     id="defs2713" />
  <sodipodi:namedview
     pagecolor="#ffffff"
     bordercolor="#666666"
     borderopacity="1"
     objecttolerance="10"
     gridtolerance="10"
     guidetolerance="10"
     inkscape:pageopacity="0"
     inkscape:pageshadow="2"
     inkscape:window-width="1920"
     inkscape:window-height="986"
     id="namedview2711"
     showgrid="false"
     inkscape:zoom="8"
     inkscape:cx="50"
     inkscape:cy="50"
     inkscape:window-x="-11"
     inkscape:window-y="-11"
     inkscape:window-maximized="1"
     inkscape:current-layer="svg2709" />
  <title
     id="title2699">project planning 2-final</title>
  <path
     d="M39.87451,120.54A4.68205,4.68205,0,0,0,44.17822,128H95.82129a4.682,4.682,0,0,0,4.30322-7.46094c-.01807-.03125-.03662-.06152-.05664-.0918l-12.745-19.59009a38.37126,38.37126,0,0,0,4.82635-62.44611,11.95575,11.95575,0,0,0-6.78558-15.57764A5.995,5.995,0,0,0,82.875,17.14551l-4.96484-3.48535a5.98953,5.98953,0,0,0-8.35254,1.47363L47.65088,46.49707a6.0204,6.0204,0,0,0,1.47461,8.36035l4.96338,3.48145A5.94483,5.94483,0,0,0,57.519,59.42871a6.09568,6.09568,0,0,0,1.05225-.0918,5.95357,5.95357,0,0,0,3.87109-2.4707L72.50281,42.46393A11.96451,11.96451,0,0,0,90.041,41.86578a34.38307,34.38307,0,0,1-4.89569,55.64417L74.27393,80.7998a4.66237,4.66237,0,0,0-8.54834,0L54.13135,98.62109A33.59986,33.59986,0,0,1,39.15131,84H52a2,2,0,0,0,0-4H36.02917c-.012-.00018-.02393-.00006-.036,0H24a2,2,0,0,0,0,4H34.70117A37.6404,37.6404,0,0,0,51.937,101.994L39.93164,120.44727C39.91162,120.47754,39.89258,120.50879,39.87451,120.54ZM69,34a11.91226,11.91226,0,0,0,1.07977,4.947L59.16309,54.5752a1.98847,1.98847,0,0,1-2.77637.49023v-.001L51.42334,51.583a2.01266,2.01266,0,0,1-.49316-2.79492L72.83691,17.4248a1.97308,1.97308,0,0,1,1.28564-.82129,2.01859,2.01859,0,0,1,.34961-.03125,1.97762,1.97762,0,0,1,1.14063.3623l4.96484,3.48535a1.99972,1.99972,0,0,1,.84686,1.60156C81.28241,22.01648,81.14331,22,81,22A12.01344,12.01344,0,0,0,69,34Zm12,8a8,8,0,1,1,8-8A8.00917,8.00917,0,0,1,81,42ZM43.31689,122.5791,69.10547,82.93945c.02-.03027.03857-.06152.05664-.0918.36865-.64062.72363-.84766.8374-.84766.11426,0,.46924.207.83789.84766.01807.03027.03662.06152.05664.0918L96.68262,122.5791c.37451.667.3335,1.03809.28809,1.11621-.04541.0791-.355.30469-1.14941.30469H44.17822c-.79395,0-1.103-.22559-1.14893-.30469C42.98389,123.61719,42.94287,123.24609,43.31689,122.5791Z"
     id="path2701"
     style="fill:#004653;fill-opacity:1" />
  <path
     d="M70,114a9,9,0,1,0-9-9.001A9.011,9.011,0,0,0,70,114Zm0-14a5,5,0,1,1-5,4.999A5.00505,5.00505,0,0,1,70,100Z"
     id="path2703"
     style="fill:#004653;fill-opacity:1" />
  <path
     d="M46.82813,58.13177a9.96033,9.96033,0,0,1-2.05927-1.94312l-5.05157,7.25562A3.99909,3.99909,0,0,0,40.69733,69l3.2251,2.27051A4.00239,4.00239,0,0,0,46.2251,72a4.07434,4.07434,0,0,0,.69482-.06049,4.00444,4.00444,0,0,0,2.58789-1.65344l5.08392-7.301a9.99375,9.99375,0,0,1-2.80121-1.37177l-.75122-.527L46.2251,68,43,65.72949l4.81006-6.90881Z"
     id="path2705"
     style="fill:#004653;fill-opacity:1" />
  <path
     d="M80.20752,10.38568l.75214.528L85.77441,4,89,6.26947l-4.81177,6.91046.98468.69116a9.94752,9.94752,0,0,1,2.05768,1.94006l5.05212-7.25549a4.001,4.001,0,0,0-.9809-5.55768L88.07617.72845A3.99867,3.99867,0,0,0,85.77441,0a4.0843,4.0843,0,0,0-.69531.06049,4.00259,4.00259,0,0,0-2.58691,1.65338L77.40759,9.015A9.99915,9.99915,0,0,1,80.20752,10.38568Z"
     id="path2707"
     style="fill:#004653;fill-opacity:1" />
</svg>
