<?xml version="1.0" encoding="UTF-8" standalone="no"?>
<svg
   xmlns:dc="http://purl.org/dc/elements/1.1/"
   xmlns:cc="http://creativecommons.org/ns#"
   xmlns:rdf="http://www.w3.org/1999/02/22-rdf-syntax-ns#"
   xmlns:svg="http://www.w3.org/2000/svg"
   xmlns="http://www.w3.org/2000/svg"
   xmlns:sodipodi="http://sodipodi.sourceforge.net/DTD/sodipodi-0.dtd"
   xmlns:inkscape="http://www.inkscape.org/namespaces/inkscape"
   height="100px"
   width="100px"
   fill="#000000"
   xml:space="preserve"
   version="1.1"
   style="shape-rendering:geometricPrecision;text-rendering:geometricPrecision;image-rendering:optimizeQuality;"
   viewBox="0 0 218 292"
   x="0px"
   y="0px"
   fill-rule="evenodd"
   clip-rule="evenodd"
   id="svg188"
   sodipodi:docname="shrub.svg"
   inkscape:version="1.0.2-2 (e86c870879, 2021-01-15)"><metadata
     id="metadata192"><rdf:RDF><cc:Work
         rdf:about=""><dc:format>image/svg+xml</dc:format><dc:type
           rdf:resource="http://purl.org/dc/dcmitype/StillImage" /><dc:title></dc:title></cc:Work></rdf:RDF></metadata><sodipodi:namedview
     pagecolor="#ffffff"
     bordercolor="#666666"
     borderopacity="1"
     objecttolerance="10"
     gridtolerance="10"
     guidetolerance="10"
     inkscape:pageopacity="0"
     inkscape:pageshadow="2"
     inkscape:window-width="1920"
     inkscape:window-height="986"
     id="namedview190"
     showgrid="false"
     inkscape:zoom="7.66"
     inkscape:cx="23.302872"
     inkscape:cy="50"
     inkscape:window-x="-11"
     inkscape:window-y="-11"
     inkscape:window-maximized="1"
     inkscape:current-layer="svg188" /><defs
     id="defs104"><style
       type="text/css"
       id="style102">
   
    .fil0 {fill:#000000}
    .fil1 {fill:#000000;fill-rule:nonzero}
   
  </style></defs><g
     id="g186"
     style="fill:#007c93;fill-opacity:1"><path
       class="fil0"
       d="M44 28c9,7 13,20 11,32 -9,-8 -14,-21 -11,-32z"
       id="path106"
       style="fill:#007c93;fill-opacity:1" /><path
       class="fil0"
       d="M71 29c4,11 1,25 -7,33 -4,-11 -2,-24 7,-33z"
       id="path108"
       style="fill:#007c93;fill-opacity:1" /><path
       class="fil0"
       d="M86 44c1,12 -4,24 -14,31 -2,-12 4,-24 14,-31z"
       id="path110"
       style="fill:#007c93;fill-opacity:1" /><path
       class="fil0"
       d="M87 66c7,9 8,23 3,34 -7,-10 -9,-23 -3,-34z"
       id="path112"
       style="fill:#007c93;fill-opacity:1" /><path
       class="fil0"
       d="M92 46c9,9 12,22 8,33 -8,-8 -12,-21 -8,-33z"
       id="path114"
       style="fill:#007c93;fill-opacity:1" /><path
       class="fil0"
       d="M95 29c10,7 15,19 13,31 -10,-7 -15,-20 -13,-31z"
       id="path116"
       style="fill:#007c93;fill-opacity:1" /><path
       class="fil0"
       d="M100 6c9,7 14,20 12,31 -9,-7 -14,-19 -12,-31z"
       id="path118"
       style="fill:#007c93;fill-opacity:1" /><path
       class="fil0"
       d="M129 0c2,12 -2,24 -11,32 -3,-12 2,-25 11,-32z"
       id="path120"
       style="fill:#007c93;fill-opacity:1" /><path
       class="fil0"
       d="M146 27c-4,11 -14,20 -26,22 4,-12 14,-20 26,-22z"
       id="path122"
       style="fill:#007c93;fill-opacity:1" /><path
       class="fil0"
       d="M143 56c-6,10 -18,17 -30,16 6,-10 18,-17 30,-16z"
       id="path124"
       style="fill:#007c93;fill-opacity:1" /><path
       class="fil0"
       d="M132 78c-6,10 -18,17 -30,16 6,-10 19,-17 30,-16z"
       id="path126"
       style="fill:#007c93;fill-opacity:1" /><path
       class="fil0"
       d="M122 106c-10,7 -23,8 -34,3 10,-7 23,-9 34,-3z"
       id="path128"
       style="fill:#007c93;fill-opacity:1" /><path
       class="fil0"
       d="M23 59c11,-4 24,-1 33,7 -12,4 -25,1 -33,-7z"
       id="path130"
       style="fill:#007c93;fill-opacity:1" /><path
       class="fil0"
       d="M30 80c9,-7 23,-8 34,-3 -10,7 -24,8 -34,3z"
       id="path132"
       style="fill:#007c93;fill-opacity:1" /><path
       class="fil0"
       d="M37 91c10,-6 24,-5 34,1 -11,6 -24,6 -34,-1z"
       id="path134"
       style="fill:#007c93;fill-opacity:1" /><path
       class="fil0"
       d="M61 98c10,6 16,19 14,30 -10,-6 -16,-18 -14,-30z"
       id="path136"
       style="fill:#007c93;fill-opacity:1" /><path
       class="fil0"
       d="M40 95c10,6 16,18 15,30 -10,-6 -16,-19 -15,-30z"
       id="path138"
       style="fill:#007c93;fill-opacity:1" /><path
       class="fil0"
       d="M21 81c10,7 16,19 15,31 -10,-7 -16,-19 -15,-31z"
       id="path140"
       style="fill:#007c93;fill-opacity:1" /><path
       class="fil0"
       d="M1 117c11,-5 25,-2 34,5 -11,5 -25,3 -34,-5z"
       id="path142"
       style="fill:#007c93;fill-opacity:1" /><path
       class="fil0"
       d="M16 143c6,-11 18,-17 30,-16 -6,10 -19,16 -30,16z"
       id="path144"
       style="fill:#007c93;fill-opacity:1" /><path
       class="fil0"
       d="M33 156c3,-11 13,-21 24,-23 -3,11 -13,21 -24,23z"
       id="path146"
       style="fill:#007c93;fill-opacity:1" /><path
       class="fil0"
       d="M56 164c0,-11 7,-23 18,-28 0,12 -8,23 -18,28z"
       id="path148"
       style="fill:#007c93;fill-opacity:1" /><path
       class="fil0"
       d="M0 97c12,-1 24,5 30,15 -12,1 -24,-5 -30,-15z"
       id="path150"
       style="fill:#007c93;fill-opacity:1" /><path
       class="fil0"
       d="M218 103c-6,10 -18,16 -30,15 6,-10 18,-16 30,-15z"
       id="path152"
       style="fill:#007c93;fill-opacity:1" /><path
       class="fil0"
       d="M174 55c0,12 -7,23 -18,28 0,-11 8,-23 18,-28z"
       id="path154"
       style="fill:#007c93;fill-opacity:1" /><path
       class="fil0"
       d="M218 127c-10,7 -23,8 -34,2 10,-7 23,-8 34,-2z"
       id="path156"
       style="fill:#007c93;fill-opacity:1" /><path
       class="fil0"
       d="M199 152c-11,2 -24,-2 -31,-12 11,-2 24,3 31,12z"
       id="path158"
       style="fill:#007c93;fill-opacity:1" /><path
       class="fil0"
       d="M178 172c-12,-3 -22,-12 -25,-24 12,3 22,12 25,24z"
       id="path160"
       style="fill:#007c93;fill-opacity:1" /><path
       class="fil0"
       d="M146 184c-9,-8 -13,-21 -10,-32 9,8 13,21 10,32z"
       id="path162"
       style="fill:#007c93;fill-opacity:1" /><path
       class="fil0"
       d="M183 84c7,9 8,23 3,34 -7,-10 -8,-23 -3,-34z"
       id="path164"
       style="fill:#007c93;fill-opacity:1" /><path
       class="fil0"
       d="M178 102c2,11 -3,24 -12,31 -2,-11 2,-24 12,-31z"
       id="path166"
       style="fill:#007c93;fill-opacity:1" /><path
       class="fil0"
       d="M165 120c-6,10 -18,16 -30,15 6,-10 18,-16 30,-15z"
       id="path168"
       style="fill:#007c93;fill-opacity:1" /><path
       class="fil0"
       d="M211 74c1,12 -6,24 -16,29 -1,-11 6,-23 16,-29z"
       id="path170"
       style="fill:#007c93;fill-opacity:1" /><path
       class="fil0"
       d="M185 78c-6,10 -18,17 -30,16 6,-10 18,-17 30,-16z"
       id="path172"
       style="fill:#007c93;fill-opacity:1" /><path
       class="fil0"
       d="M176 97c-6,10 -18,17 -30,16 6,-10 19,-17 30,-16z"
       id="path174"
       style="fill:#007c93;fill-opacity:1" /><path
       class="fil0"
       d="M147 53c7,10 8,23 3,34 -7,-10 -8,-23 -3,-34z"
       id="path176"
       style="fill:#007c93;fill-opacity:1" /><path
       class="fil0"
       d="M137 74c7,9 9,23 4,34 -7,-10 -9,-23 -4,-34z"
       id="path178"
       style="fill:#007c93;fill-opacity:1" /><path
       class="fil0"
       d="M130 95c7,10 7,23 0,33 -6,-10 -6,-23 0,-33z"
       id="path180"
       style="fill:#007c93;fill-opacity:1" /><path
       class="fil0"
       d="M102 116c12,3 21,13 23,24 -11,-3 -20,-13 -23,-24z"
       id="path182"
       style="fill:#007c93;fill-opacity:1" /><path
       class="fil1"
       d="M111 279c-10,-30 -9,-56 -4,-81 -18,-17 -22,-41 -25,-67 -17,6 -34,-3 -49,-15l2 -2c14,11 30,20 46,14 -3,-23 -8,-47 -26,-66l2 -2c14,14 20,31 24,49 23,-14 30,-49 34,-73l3 1c-4,25 -12,60 -37,75 6,29 6,62 27,83 9,-39 30,-73 46,-110l2 1 -27 59c21,2 41,-10 57,-25l2 2c-17,16 -38,29 -60,25 -18,40 -31,81 -14,132 15,0 27,3 27,6 0,4 -12,7 -27,7 -16,0 -28,-3 -28,-7 0,-3 11,-6 25,-6z"
       id="path184"
       style="fill:#007c93;fill-opacity:1" /></g></svg>
