<?xml version="1.0" encoding="UTF-8" standalone="no"?>
<svg
   xmlns:dc="http://purl.org/dc/elements/1.1/"
   xmlns:cc="http://creativecommons.org/ns#"
   xmlns:rdf="http://www.w3.org/1999/02/22-rdf-syntax-ns#"
   xmlns:svg="http://www.w3.org/2000/svg"
   xmlns="http://www.w3.org/2000/svg"
   xmlns:sodipodi="http://sodipodi.sourceforge.net/DTD/sodipodi-0.dtd"
   xmlns:inkscape="http://www.inkscape.org/namespaces/inkscape"
   height="100px"
   width="100px"
   fill="#000000"
   version="1.1"
   x="0px"
   y="0px"
   viewBox="0 0 100 100"
   enable-background="new 0 0 100 100"
   xml:space="preserve"
   id="svg3318"
   sodipodi:docname="social.svg"
   inkscape:version="1.0.2-2 (e86c870879, 2021-01-15)"><metadata
     id="metadata3324"><rdf:RDF><cc:Work
         rdf:about=""><dc:format>image/svg+xml</dc:format><dc:type
           rdf:resource="http://purl.org/dc/dcmitype/StillImage" /></cc:Work></rdf:RDF></metadata><defs
     id="defs3322" /><sodipodi:namedview
     pagecolor="#ffffff"
     bordercolor="#666666"
     borderopacity="1"
     objecttolerance="10"
     gridtolerance="10"
     guidetolerance="10"
     inkscape:pageopacity="0"
     inkscape:pageshadow="2"
     inkscape:window-width="1920"
     inkscape:window-height="986"
     id="namedview3320"
     showgrid="false"
     inkscape:zoom="8"
     inkscape:cx="50"
     inkscape:cy="50"
     inkscape:window-x="-11"
     inkscape:window-y="-11"
     inkscape:window-maximized="1"
     inkscape:current-layer="svg3318" /><g
     id="g3316"
     style="fill:#004653;fill-opacity:1"><ellipse
       cx="28.5"
       cy="22"
       rx="6.6"
       ry="6.9"
       id="ellipse3302"
       style="fill:#004653;fill-opacity:1" /><path
       d="M32,29.1l-3.4,2.6l-3.4-2.6c-1,0.2-9,2.2-9.7,8.4c-0.1,0.6,0.2,1.2,0.7,1.6c1.5,1,5.2,3,12.4,3l0,0l0,0   c7.2,0,10.9-2,12.4-3c0.5-0.4,0.8-1,0.7-1.6C40.9,31.3,32.9,29.3,32,29.1z"
       id="path3304"
       style="fill:#004653;fill-opacity:1" /><ellipse
       cx="74.6"
       cy="48.4"
       rx="4.9"
       ry="5.2"
       id="ellipse3306"
       style="fill:#004653;fill-opacity:1" /><path
       d="M77.2,53.8l-2.5,2l-2.5-2c-0.7,0.2-6.7,1.7-7.3,6.3c-0.1,0.5,0.1,0.9,0.5,1.2c1.1,0.8,3.9,2.2,9.3,2.2l0,0l0,0   c5.4,0,8.2-1.5,9.3-2.2c0.4-0.3,0.6-0.7,0.5-1.2C83.9,55.4,77.9,53.9,77.2,53.8z"
       id="path3308"
       style="fill:#004653;fill-opacity:1" /><ellipse
       cx="33.4"
       cy="70.8"
       rx="4.9"
       ry="5.2"
       id="ellipse3310"
       style="fill:#004653;fill-opacity:1" /><path
       d="M36,76.1l-2.5,2l-2.5-2c-0.7,0.2-6.7,1.7-7.3,6.3c-0.1,0.5,0.1,0.9,0.5,1.2c1.1,0.8,3.9,2.2,9.3,2.2l0,0l0,0   c5.4,0,8.2-1.5,9.3-2.2c0.4-0.3,0.6-0.7,0.5-1.2C42.7,77.8,36.7,76.3,36,76.1z"
       id="path3312"
       style="fill:#004653;fill-opacity:1" /><path
       d="M94.8,82.1c-0.9-3.3-4.2-5.3-7.5-4.6L84,69.2c5.2-3.2,8.6-8.9,8.6-15.3c0-9.9-8.1-18-18-18c-6.3,0-11.9,3.3-15.1,8.2   l-9.6-5.2c1.5-3.1,2.4-6.6,2.4-10.3c0-2.5-0.4-5-1.2-7.3l10.1-2.7c1.3,2,3.8,3.2,6.4,2.8c3.5-0.5,5.9-3.8,5.4-7.3   c-0.5-3.5-3.8-5.9-7.3-5.4c-3.5,0.5-5.8,3.8-5.4,7.2L50,18.7C46.3,10.6,38.1,5,28.6,5C15.6,5,5,15.6,5,28.6s10.6,23.6,23.6,23.6   c0.2,0,0.4,0,0.6,0l0.8,7.2C21.8,61,15.5,68.3,15.5,77c0,9.9,8.1,18,18,18s18-8.1,18-18c0-2.7-0.6-5.3-1.7-7.6l9.8-5.5   c3.2,4.8,8.7,8,14.9,8c2.4,0,4.7-0.5,6.9-1.4l3.2,8.2c-2,1.5-3,4.2-2.3,6.8c0.9,3.4,4.5,5.4,7.9,4.5C93.7,89.1,95.7,85.5,94.8,82.1   z M8.4,28.6c0-11.2,9.1-20.2,20.2-20.2s20.2,9.1,20.2,20.2s-9.1,20.2-20.2,20.2S8.4,39.8,8.4,28.6z M33.5,91.6   c-8.1,0-14.6-6.6-14.6-14.6s6.6-14.6,14.6-14.6S48.1,69,48.1,77S41.5,91.6,33.5,91.6z M48.4,67c-3.2-4.8-8.7-8-14.9-8   c-0.2,0-0.5,0-0.7,0L32,52c6.9-1,12.8-5,16.5-10.6l9.7,5.2c-1,2.2-1.6,4.7-1.6,7.3c0,2.7,0.6,5.3,1.7,7.6L48.4,67z M60,53.9   c0-8.1,6.6-14.6,14.6-14.6s14.6,6.6,14.6,14.6s-6.6,14.6-14.6,14.6S60,62,60,53.9z"
       id="path3314"
       style="fill:#004653;fill-opacity:1" /></g></svg>
