<svg height='100px' width='100px'  fill="#000000" xmlns="http://www.w3.org/2000/svg" xmlns:xlink="http://www.w3.org/1999/xlink" version="1.1" x="0px" y="0px" viewBox="0 0 64 64" style="enable-background:new 0 0 64 64;" xml:space="preserve"><path d="M57.082,49.538c-0.434-0.52-1.069-1.282-1.853-2.225c8.906-10.165,6.531-27.366,6.421-28.117  c-0.064-0.438-0.408-0.782-0.846-0.846c-0.698-0.101-15.601-2.155-25.863,4.702c-0.79-0.941-1.57-1.866-2.337-2.776  C35.255,18.476,37,15.439,37,12c0-5.514-4.486-10-10-10c-2.907,0-5.521,1.255-7.35,3.242C15.645,1.302,7.779,0.805,4.293,4.293  c-3.502,3.502-2.989,11.426,1,15.414c1.695,1.695,11.79,10.226,20.181,17.268c-2.396,8.633-1.201,17.301-1.124,17.829  c0.064,0.438,0.408,0.782,0.846,0.846c0.269,0.039,2.636,0.367,6.033,0.367c3.934,0,9.247-0.448,14.277-2.289  c1.807,1.506,3.209,2.673,4.031,3.355c-0.953,1.224-0.868,3,0.257,4.124c0.608,0.608,1.408,0.913,2.207,0.913  s1.599-0.304,2.207-0.913l7-7c0.589-0.589,0.913-1.373,0.913-2.207s-0.324-1.618-0.913-2.207  C60.082,48.668,58.306,48.583,57.082,49.538z M35,12c0,2.344-1.02,4.449-2.631,5.914C31.505,16.391,31,14.267,31,12  s0.505-4.391,1.369-5.914C33.98,7.551,35,9.656,35,12z M30.73,4.929C29.638,6.775,29,9.324,29,12s0.638,5.225,1.73,7.071  C29.616,19.662,28.347,20,27,20s-2.616-0.338-3.73-0.929C24.362,17.225,25,14.676,25,12s-0.638-5.225-1.73-7.071  C24.384,4.338,25.653,4,27,4S29.616,4.338,30.73,4.929z M21.631,6.086C22.495,7.609,23,9.733,23,12s-0.505,4.391-1.369,5.914  C20.02,16.449,19,14.344,19,12S20.02,7.551,21.631,6.086z M6.707,18.293C3.533,15.119,3,8.414,5.707,5.707  c2.708-2.707,9.411-2.174,12.586,1c0.043,0.043,0.095,0.098,0.146,0.151C17.532,8.363,17,10.118,17,12c0,5.514,4.486,10,10,10  c1.347,0,2.63-0.271,3.804-0.756c0.826,0.979,1.669,1.98,2.524,2.998c-0.563,0.455-1.111,0.934-1.632,1.455  c-2.646,2.646-4.407,5.877-5.574,9.212C14.86,25.452,7.973,19.559,6.707,18.293z M26.242,53.758  c-0.357-3.525-1.318-18.46,6.869-26.647c8.186-8.188,23.121-7.227,26.647-6.869c0.357,3.525,1.318,18.46-6.869,26.647  C44.702,55.076,29.766,54.113,26.242,53.758z M59.793,52.793l-7,7c-0.438,0.438-1.148,0.438-1.586,0  c-0.437-0.438-0.437-1.148,0-1.586l0.5-0.5c0.199-0.199,0.305-0.472,0.292-0.753c-0.013-0.281-0.144-0.543-0.36-0.723  c0,0-1.537-1.276-4.04-3.362c2.235-1.024,4.357-2.373,6.222-4.121c1.517,1.822,2.413,2.894,2.413,2.894  c0.18,0.215,0.442,0.345,0.723,0.358c0.283,0.007,0.553-0.094,0.751-0.292l0.5-0.5c0.426-0.425,1.16-0.425,1.586,0  c0.271,0.271,0.327,0.581,0.327,0.793S60.063,52.522,59.793,52.793z"></path><path d="M18,39.86V36c0-2.757-2.243-5-5-5s-5,2.243-5,5v3.86L2.039,60.725c-0.105,0.367,0.008,0.762,0.292,1.017  c0.284,0.255,0.687,0.327,1.042,0.187L8,60.077l4.628,1.852c0.239,0.095,0.504,0.095,0.743,0L18,60.077l4.628,1.852  C22.749,61.977,22.875,62,23,62c0.243,0,0.483-0.089,0.67-0.258c0.283-0.255,0.396-0.65,0.292-1.017L18,39.86z M10,36  c0-1.654,1.346-3,3-3s3,1.346,3,3v3h-6V36z M12,41v18.523l-2.888-1.155L11.854,41H12z M14,41h0.146l2.742,17.368L14,59.523V41z   M9.754,41H9.83L7.101,58.282l-2.579,1.032L9.754,41z M18.899,58.282L16.17,41h0.075l5.233,18.314L18.899,58.282z"></path><polygon points="51.707,29.707 50.293,28.293 49,29.586 46.707,27.293 45.293,28.707 47.586,31 46,32.586 43.707,30.293   42.293,31.707 44.586,34 43,35.586 40.707,33.293 39.293,34.707 41.586,37 40,38.586 37.707,36.293 36.293,37.707 38.586,40   37,41.586 34.707,39.293 33.293,40.707 35.586,43 34.293,44.293 35.707,45.707 37,44.414 39.293,46.707 40.707,45.293 38.414,43   40,41.414 42.293,43.707 43.707,42.293 41.414,40 43,38.414 45.293,40.707 46.707,39.293 44.414,37 46,35.414 48.293,37.707   49.707,36.293 47.414,34 49,32.414 51.293,34.707 52.707,33.293 50.414,31 "></polygon></svg>