<?xml version="1.0" encoding="UTF-8" standalone="no"?>
<svg
   xmlns:dc="http://purl.org/dc/elements/1.1/"
   xmlns:cc="http://creativecommons.org/ns#"
   xmlns:rdf="http://www.w3.org/1999/02/22-rdf-syntax-ns#"
   xmlns:svg="http://www.w3.org/2000/svg"
   xmlns="http://www.w3.org/2000/svg"
   xmlns:sodipodi="http://sodipodi.sourceforge.net/DTD/sodipodi-0.dtd"
   xmlns:inkscape="http://www.inkscape.org/namespaces/inkscape"
   height="100px"
   width="100px"
   fill="#000000"
   xml:space="preserve"
   version="1.1"
   style="shape-rendering:geometricPrecision;text-rendering:geometricPrecision;image-rendering:optimizeQuality;"
   viewBox="0 0 243.91 277.7"
   x="0px"
   y="0px"
   fill-rule="evenodd"
   clip-rule="evenodd"
   id="svg855"
   sodipodi:docname="tree.svg"
   inkscape:version="1.0.2-2 (e86c870879, 2021-01-15)"><metadata
     id="metadata859"><rdf:RDF><cc:Work
         rdf:about=""><dc:format>image/svg+xml</dc:format><dc:type
           rdf:resource="http://purl.org/dc/dcmitype/StillImage" /><dc:title></dc:title></cc:Work></rdf:RDF></metadata><sodipodi:namedview
     pagecolor="#ffffff"
     bordercolor="#666666"
     borderopacity="1"
     objecttolerance="10"
     gridtolerance="10"
     guidetolerance="10"
     inkscape:pageopacity="0"
     inkscape:pageshadow="2"
     inkscape:window-width="1920"
     inkscape:window-height="986"
     id="namedview857"
     showgrid="false"
     inkscape:zoom="8"
     inkscape:cx="50"
     inkscape:cy="50"
     inkscape:window-x="-11"
     inkscape:window-y="-11"
     inkscape:window-maximized="1"
     inkscape:current-layer="svg855" /><defs
     id="defs849"><style
       type="text/css"
       id="style847">
   
    .fil0 {fill:#000000}
   
  </style></defs><g
     id="g853"
     style="fill:#007c93;fill-opacity:1"><path
       class="fil0"
       d="M148.03 261.2c4.32,6.51 13.85,8.33 15.59,11.45 -16.82,-0.23 -22.75,-4.3 -30.5,-4.3 -11.26,-0.22 -12.57,7.51 -15.84,9.35 -2.31,-5.85 1.2,-7.41 -1.46,-11.52 -9.14,3.14 -22.12,5.35 -29.63,4.42 16.69,-8.19 18.54,-14.4 23.39,-20.72 10.59,-13.82 17.41,-65.3 3.26,-75.09 -7.03,-4.86 -18.11,-14.87 -29.47,-12.17 -17.45,4.15 -23.15,12.02 -35.19,4.88 -8.39,-4.98 -10.17,-12.39 -22.14,-17.3 5.94,0.31 14.72,7.91 16.61,9.46 12.73,10.48 16.65,6.4 29.45,1.08 12.56,-5.22 20.53,-6.24 45.23,4.31 -0.09,-6.13 -4.13,-12.26 -4.22,-18.39 -18.29,-15.43 -34.65,-19.49 -53.73,-27.87 -15.22,-6.97 -25.97,-22.38 -26.86,-26.43 5.69,5.57 18.33,21.41 34.99,22.7 3.21,1.15 -1.79,-11.57 -2.45,-13.91 -3.19,-8.74 -1.31,-16.21 0.18,-20.28 0.18,11.85 3.62,19.05 3.72,19.28 1.98,4.67 6.64,14.36 10.23,17.78 7.82,3.77 24.77,14.65 32.58,15.57 -4.95,-30.19 2.41,-44.75 -33.45,-63.55 19.37,3.67 30.51,20.75 33.26,21.38 1.54,-6.64 5.97,-13.74 12.38,-19.19 0.45,-5.13 2.09,-28.3 -4.34,-36.11 -9.36,-11.39 -27.08,-3.89 -38.43,-16.4 18.11,12.51 28.28,0.41 41.09,14.72 6.96,7.77 5.2,30.21 4.68,35.47 3.57,-2.52 7.63,-4.52 12.04,-5.72 2.59,-0.71 35.2,-6.26 51.86,-17.7 -19.93,15.76 -49.48,18.92 -52.11,20 -37.39,15.36 -18.57,52.15 -13.33,78.09 17.85,-5.69 21.38,-7.68 33.78,-18.75 -8.1,-20.25 -6.93,-34.83 14.13,-46.34 -20.23,17.05 -17.04,28.18 -10.73,43.29 10.41,-9.36 35.36,-19.2 62.43,-5.2 -30.19,-8.43 -46.99,-0.39 -56.28,7.32 -11.15,9.24 -22.54,22.13 -39.94,30.7 4.41,14.7 9.59,32.78 10.44,46.68 14.96,-8.53 14.76,-7.16 17.36,-25.65 0.96,-6.85 4.58,-13.62 8.37,-19.21 -0.89,8.54 -8.33,17.45 -2.95,26.27 2.76,4.52 16.17,-22.9 36.11,-25.13 3.62,-0.41 10.37,-1.76 19.56,6.94 -9.41,-3.38 -18.22,-10.52 -36.06,7.04 -9.41,9.26 -17.79,25.56 -26.34,31.54 -7.03,4.33 -14.06,10.11 -14.06,10.11 -1.12,10.77 0.62,37.8 6.8,47.1zm-74.09 -78.2c5.25,5.76 0.39,16.8 -7.54,19.69 -3.73,-7.01 -0.22,-19 6.18,-19.11 -0.02,3.02 -0.94,8.72 -3.89,14.43 2.39,-3.3 4.48,-10.53 5.25,-15.01zm111.86 8.62c-6.4,-7.02 -0.47,-20.49 9.2,-24.02 4.55,8.55 0.27,23.19 -7.54,23.31 0.02,-3.68 1.14,-10.64 4.74,-17.59 -2.92,4.02 -5.46,12.84 -6.41,18.31zm-135.88 -12.05c2.05,7.28 -8.64,11.68 -16.45,8.89 4.54,-3.26 8.88,-15.01 16.45,-8.89zm12.6 -8.22c6.4,7.02 0.47,20.48 -9.2,24.02 -4.55,-8.55 -0.27,-23.19 7.54,-23.31 -0.02,3.68 -1.14,10.64 -4.75,17.6 2.92,-4.02 5.46,-12.85 6.41,-18.31zm30.16 -128.51c4.76,0 4.76,7.23 0,7.23 -4.76,0 -4.76,-7.23 0,-7.23zm74.44 61.39c6.91,0 6.91,10.5 0,10.5 -6.91,0 -6.91,-10.5 0,-10.5zm-28.23 32.47c8.68,1.43 12.39,-11.5 8.14,-20.18 -3.18,5.68 -16.21,12.22 -8.14,20.18zm-10.3 -3.06c5.04,0 5.05,7.67 0,7.67 -5.05,0 -5.04,-7.67 0,-7.67zm-23.39 -12.74c5.05,0 5.04,7.67 0,7.67 -5.05,0 -5.05,-7.67 0,-7.67zm-7.96 4.92c3.06,-9.31 -1.44,-15.41 -10.09,-17.17 0.62,6.05 -0.63,14.23 10.09,17.17zm30.88 -110.6c-7.8,-2.48 -9.73,-8.5 -6.69,-15.22 3.8,3.37 9.94,6.53 6.69,15.22zm-48.32 98.63c-5.2,-5.14 0.04,-10.46 5.77,-12.86 -0.9,4.26 2.08,8.5 -5.77,12.86zm72.53 38.64c-6.37,0 -6.37,9.68 0,9.68 6.37,0 6.37,-9.68 0,-9.68zm-33.2 -37.95c9.65,-5.98 14.62,3.74 15.28,13.18 -5.54,-2.86 -12.88,0.12 -15.28,-13.18zm13.95 39.87c7.44,-1.54 14.29,8.04 12.77,16.14 -7.74,-0.37 -16.06,-9.29 -12.96,-14.7 2.52,1.51 6.86,5.13 10.17,10.45 -1.57,-3.65 -6.61,-9 -9.98,-11.89zm-34.67 -13.94c-6.78,6.4 1.74,17.83 11.78,19.83 -2.74,-6.32 0.12,-21.52 -11.78,-19.83zm45.77 37.18c-0.31,-3.39 3.19,-4.08 4.5,-2.72 3.38,3.52 0.97,11.06 -1.13,14.36 -2.37,-5.24 -7.83,-4.97 -8.47,-9.47 -0.3,-2.12 3.23,-3.78 5.1,-2.18zm-37.72 -153.08c1.33,-9.1 7.66,-12.33 15.66,-10.18 -3.05,4.82 -5.43,12.2 -15.66,10.18zm26.07 8.88c3.18,8.26 9.81,9.95 16.87,6.23 -3.89,-3.87 -7.69,-10.31 -16.87,-6.23zm11.77 -3.59c2.94,7.64 9.07,9.2 15.6,5.76 -3.6,-3.59 -7.11,-9.53 -15.6,-5.76zm20.79 -21.61c-4.76,0 -4.76,7.22 0,7.22 4.76,0 4.76,-7.22 0,-7.22zm-13.25 12.64c7.8,-2.48 9.73,-8.5 6.69,-15.22 -3.8,3.37 -9.94,6.52 -6.69,15.22zm-9.22 4.96c-6.23,-4.68 -3.51,-16.43 3.74,-20.75 4.97,6.19 3.76,18.63 -2.5,19.93 -0.55,-2.97 -0.71,-8.74 1.13,-14.9 -1.74,3.68 -2.43,11.18 -2.36,15.72zm-4.54 -16.94c3.3,1.73 5.46,-1.52 4.63,-3.42 -2.15,-4.89 -10.78,-5.59 -15,-4.85 4.31,4.57 1.76,10 6.05,12.52 2.02,1.19 5.17,-1.69 4.33,-4.25zm26.32 17.08c0.28,-3.01 -2.83,-3.63 -4,-2.42 -3.01,3.13 -0.86,9.83 1,12.77 2.1,-4.66 6.96,-4.42 7.53,-8.42 0.27,-1.89 -2.87,-3.36 -4.53,-1.93zm2.81 -1.34c-1.69,-7.1 2.04,-11.35 8.57,-12.11 -0.84,4.45 -0.43,10.6 -8.57,12.11zm6.63 19.6c-1.69,-7.1 2.04,-11.35 8.58,-12.11 -0.84,4.45 -0.43,10.6 -8.58,12.11zm-0.83 -19.23c3.76,6.82 15.77,5.77 21.07,-0.81 -5.44,-5.78 -17.92,-6.32 -20.08,-0.3 2.86,0.96 8.56,1.93 14.91,0.96 -3.89,1.2 -11.41,0.85 -15.9,0.15zm25.74 5.17c0.28,-3.01 -2.83,-3.63 -4,-2.42 -3,3.13 -0.86,9.83 1,12.77 2.1,-4.66 6.96,-4.42 7.53,-8.42 0.27,-1.89 -2.87,-3.36 -4.53,-1.93zm-11.88 16.2c6,-5.28 5.35,-11.42 0,-16.23 -2.07,4.5 -6.32,9.74 0,16.23zm8.93 2.84c6.35,3.94 13.46,-5.01 12.94,-13.19 -4.34,3.43 -16.69,4.32 -12.94,13.19zm-14.52 12.53c-1.73,-8.62 11.06,-12.78 19.88,-8.85 -5.57,3.38 -11.63,16.63 -19.88,8.85zm24.85 -2.37c-5.05,0 -5.05,7.67 0,7.67 5.05,0 5.05,-7.67 0,-7.67zm8.08 4.83c7.67,-6.75 6.85,-14.61 0,-20.78 -2.64,5.77 -8.09,12.46 0,20.78zm-16.35 18.7c7.67,-6.75 6.85,-14.61 0,-20.77 -2.65,5.76 -8.09,12.46 0,20.77zm17.73 -3.73c7.59,1.76 14.82,-7.89 13.46,-16.22 -7.93,0.19 -16.67,9.13 -13.63,14.75 2.62,-1.49 7.15,-5.09 10.67,-10.46 -1.7,3.7 -6.98,9.06 -10.5,11.93zm12.71 13.3c5.1,2.6 9.96,-4.69 9.05,-10.9 -3.09,2.89 -12.48,4.37 -9.05,10.9zm-7.52 76.24c3.1,4.81 10.96,0.96 13.3,-4.88 -4.14,0.94 -12.98,-2.49 -13.3,4.88zm-4.63 7.87c4.04,7.79 12,3.68 16.78,-2.03 -5.2,-0.48 -9,-5.41 -16.78,2.03zm-93.75 -66.9c9.85,2.73 15.98,-2.26 17.38,-11.37 -6.27,0.94 -14.85,0.05 -17.38,11.37zm56.76 52.09c7.37,-1.66 6.17,-13.15 0,-18.69 -0.71,5.56 -8.98,14.94 0,18.69zm47.65 -52.38c8.93,1.94 14.15,-2.82 14.95,-11.02 -5.55,1.15 -13.26,0.79 -14.95,11.02zm-80.3 -11.09c-5.05,0 -5.05,7.67 0,7.67 5.05,0 5.06,-7.67 0,-7.67zm51.91 27.49c-6.37,0 -6.37,9.68 0,9.68 6.37,0 6.37,-9.68 0,-9.68zm39.26 10.22c-6.37,0 -6.37,9.68 0,9.68 6.37,0 6.37,-9.68 0,-9.68zm-13.46 -5.89c8.96,4.93 16.07,1.49 19.54,-7.05 -6.32,-0.53 -14.46,-3.38 -19.54,7.05zm-106.44 -25.76c-1.69,-7.11 2.04,-11.35 8.57,-12.11 -0.84,4.45 -0.43,10.6 -8.57,12.11zm56.67 -29.93c7.27,-5.15 7.27,-12.04 1.89,-18 -2.81,4.76 -8.14,10.06 -1.89,18zm-24.55 -5.93c4.38,9.24 12.17,10.61 19.97,5.7 -4.81,-4.12 -9.76,-11.2 -19.97,-5.7zm-13.42 23.32c7,-6.86 14.45,-5.52 19.86,1.47 -5.7,2.12 -12.48,6.85 -19.86,-1.47zm12.42 -9.02c5.22,-5.11 10.77,-4.11 14.8,1.1 -4.24,1.58 -9.3,5.1 -14.8,-1.1zm17 5.14c8,6.37 15.59,4.17 20.45,-3.66 -6.14,-1.59 -13.69,-5.77 -20.45,3.66zm11.51 18.24c1.43,-10.13 -4.31,-15.56 -13.52,-15.77 1.75,6.09 1.97,14.72 13.52,15.77zm35.86 -14.89c9.99,2.17 15.83,-3.15 16.72,-12.33 -6.21,1.3 -14.83,0.88 -16.72,12.33zm-4.4 -0.33c7.67,-6.75 6.85,-14.61 0,-20.77 -2.65,5.76 -8.09,12.46 0,20.77zm-42.48 -36.36c6.87,-6.05 6.14,-13.09 0,-18.6 -2.37,5.17 -7.24,11.16 0,18.6zm50.18 70.16c-0.31,-3.39 3.19,-4.08 4.5,-2.72 3.39,3.52 0.97,11.06 -1.12,14.36 -2.37,-5.24 -7.83,-4.96 -8.47,-9.47 -0.3,-2.12 3.23,-3.78 5.09,-2.17zm-18.15 -36.96c-0.31,-3.39 3.19,-4.08 4.5,-2.72 3.38,3.52 0.97,11.06 -1.13,14.36 -2.36,-5.24 -7.83,-4.96 -8.47,-9.46 -0.3,-2.12 3.23,-3.78 5.09,-2.18zm-12.67 36.59c-0.31,-3.39 3.19,-4.08 4.5,-2.72 3.38,3.52 0.97,11.06 -1.13,14.36 -2.37,-5.24 -7.83,-4.97 -8.47,-9.47 -0.3,-2.12 3.23,-3.78 5.1,-2.18zm-39.5 -66.37c7.59,1.75 14.83,-7.89 13.46,-16.22 -7.93,0.19 -16.67,9.13 -13.62,14.75 2.62,-1.49 7.15,-5.09 10.66,-10.46 -1.7,3.7 -6.98,9.06 -10.5,11.93zm65.44 40.15c3.73,6.83 15.75,5.83 21.07,-0.73 -5.42,-5.8 -17.9,-6.39 -20.07,-0.37 2.85,0.97 8.55,1.96 14.9,1.02 -3.89,1.19 -11.41,0.81 -15.9,0.09zm-19.75 20.51c1.74,6.57 12.13,8.22 18,3.78 -3.38,-6.04 -13.83,-9.14 -16.93,-4.5 2.22,1.41 6.84,3.44 12.41,3.96 -3.54,0.2 -9.83,-1.69 -13.48,-3.24zm-25.88 11.02c-2.38,8.46 10.05,13.59 19.14,10.35 -5.29,-3.8 -10.33,-17.48 -19.14,-10.35zm31.35 38.38c-2.05,7.27 8.63,11.68 16.44,8.89 -4.56,-3.27 -8.87,-15.02 -16.44,-8.89zm-22.5 -6.38c2.59,5.92 -4.17,13.3 -11.18,13.47 -1.06,-6.5 4.89,-15 9.95,-13.37 -0.81,2.37 -3.06,6.61 -6.9,10.3 2.76,-1.95 6.33,-7.08 8.13,-10.4zm7.67 -82.19c-0.31,3.39 3.19,4.08 4.5,2.72 3.38,-3.52 0.97,-11.06 -1.13,-14.37 -2.36,5.24 -7.83,4.97 -8.47,9.47 -0.3,2.13 3.23,3.78 5.1,2.18zm-60.3 6.01c-3.26,0.95 -2.63,4.46 -0.89,5.18 4.51,1.87 10.65,-3.13 12.96,-6.29 -5.74,-0.29 -7.48,-5.48 -11.91,-4.43 -2.09,0.5 -2.34,4.39 -0.17,5.54zm76.07 18.93c1.92,7.34 13.41,5.74 18.76,-0.65 -5.6,-0.52 -15.3,-8.5 -18.76,0.65zm-10.41 1.73c8.58,-1.93 7.18,-15.31 0,-21.76 -0.82,6.45 -10.46,17.4 0,21.76zm-49.22 4.67c-2.95,0.94 -2.38,4.46 -0.8,5.18 4.07,1.86 9.61,-3.13 11.7,-6.29 -5.18,-0.29 -6.75,-5.48 -10.74,-4.43 -1.88,0.5 -2.11,4.39 -0.15,5.54zm18.96 33.56c-3.97,1.28 -3.2,6.01 -1.08,6.98 5.48,2.51 12.94,-4.22 15.76,-8.48 -6.98,-0.39 -9.1,-7.38 -14.48,-5.97 -2.54,0.67 -2.85,5.91 -0.2,7.46zm68.35 9.41c-2.95,0.95 -2.38,4.46 -0.8,5.18 4.07,1.87 9.61,-3.13 11.69,-6.29 -5.18,-0.29 -6.75,-5.48 -10.74,-4.43 -1.88,0.5 -2.11,4.39 -0.15,5.54zm-7.95 -5.84c6.73,3.43 13.15,-6.18 11.94,-14.39 -4.09,3.82 -16.46,5.76 -11.94,14.39zm-9.3 0.72c7.37,-1.66 6.17,-13.15 0,-18.69 -0.71,5.55 -8.99,14.94 0,18.69zm-43.01 46.62c2.2,8.32 15.37,10.41 22.81,4.78 -4.28,-7.66 -17.53,-11.58 -21.45,-5.7 2.81,1.79 8.67,4.35 15.73,5.02 -4.49,0.25 -12.46,-2.14 -17.09,-4.1zm25.9 -37.9c-4.99,-5.48 -0.37,-15.98 7.18,-18.73 3.54,6.67 0.2,18.08 -5.88,18.18 0.01,-2.87 0.89,-8.3 3.7,-13.72 -2.28,3.13 -4.26,10.02 -5,14.28zm34.71 -40.86c3.1,5.68 13.09,4.84 17.5,-0.6 -4.5,-4.82 -14.86,-5.31 -16.67,-0.31 2.37,0.8 7.1,1.63 12.38,0.84 -3.23,0.99 -9.48,0.67 -13.2,0.07zm-120.61 56.43c2.17,7.71 -9.15,12.38 -17.43,9.42 4.82,-3.46 9.41,-15.91 17.43,-9.42zm-14.78 -5.04c0.31,-3.39 -3.19,-4.08 -4.5,-2.72 -3.38,3.52 -0.97,11.06 1.13,14.36 2.37,-5.24 7.83,-4.96 8.47,-9.47 0.3,-2.12 -3.23,-3.78 -5.09,-2.17zm29.78 -125.88c-7.7,-5.02 -14.31,-2.41 -17.99,5.01 5.63,0.9 12.74,4 17.99,-5.01zm2.87 18.28c1.73,-8.62 -11.06,-12.79 -19.87,-8.85 5.56,3.38 11.63,16.63 19.87,8.85zm-12.43 -26.95c-3.18,8.26 -9.81,9.95 -16.87,6.23 3.89,-3.87 7.69,-10.31 16.87,-6.23zm-11.77 -3.59c-2.94,7.64 -9.07,9.2 -15.6,5.76 3.6,-3.59 7.11,-9.53 15.6,-5.76zm-20.79 -21.61c4.76,0 4.76,7.22 0,7.22 -4.76,0 -4.76,-7.22 0,-7.22zm13.25 12.64c-7.8,-2.48 -9.73,-8.5 -6.69,-15.22 3.8,3.37 9.94,6.52 6.69,15.22zm9.22 4.96c6.23,-4.68 3.51,-16.43 -3.74,-20.75 -4.97,6.19 -3.76,18.63 2.5,19.93 0.55,-2.97 0.71,-8.74 -1.13,-14.9 1.74,3.68 2.43,11.18 2.36,15.72zm4.54 -16.94c-3.3,1.73 -5.46,-1.52 -4.63,-3.42 2.15,-4.89 10.78,-5.59 15,-4.85 -4.31,4.57 -1.76,10 -6.05,12.52 -2.02,1.19 -5.17,-1.69 -4.33,-4.25zm17.79 13.81c-0.34,-3.7 3.49,-4.46 4.93,-2.97 3.7,3.85 1.06,12.1 -1.23,15.72 -2.59,-5.73 -8.57,-5.44 -9.27,-10.36 -0.33,-2.32 3.54,-4.13 5.57,-2.38zm-44.11 3.27c-0.28,-3.01 2.84,-3.63 4,-2.42 3,3.13 0.86,9.83 -1,12.77 -2.1,-4.66 -6.96,-4.42 -7.53,-8.42 -0.27,-1.89 2.87,-3.36 4.53,-1.93zm-2.81 -1.34c1.69,-7.1 -2.04,-11.35 -8.57,-12.11 0.84,4.45 0.43,10.6 8.57,12.11zm-6.63 19.6c1.69,-7.1 -2.04,-11.35 -8.58,-12.11 0.84,4.45 0.43,10.6 8.58,12.11zm0.83 -19.23c-3.76,6.82 -15.77,5.77 -21.07,-0.81 5.44,-5.78 17.93,-6.32 20.08,-0.3 -2.86,0.96 -8.56,1.93 -14.91,0.96 3.89,1.2 11.41,0.85 15.9,0.15zm-25.74 5.17c-0.28,-3.01 2.83,-3.63 4,-2.42 3.01,3.13 0.86,9.83 -1,12.77 -2.1,-4.66 -6.96,-4.42 -7.53,-8.42 -0.27,-1.89 2.87,-3.36 4.53,-1.93zm10.95 20.74c-7.67,-6.75 -6.85,-14.61 0,-20.77 2.65,5.76 8.09,12.46 0,20.77zm-8 -1.7c-6.35,3.94 -13.46,-5.01 -12.94,-13.19 4.35,3.43 16.69,4.32 12.94,13.19zm14.52 12.53c1.73,-8.62 -11.06,-12.78 -19.88,-8.85 5.57,3.38 11.63,16.63 19.88,8.85zm-24.85 -2.37c5.05,0 5.06,7.67 0,7.67 -5.05,0 -5.05,-7.67 0,-7.67zm-8.08 4.83c-7.67,-6.75 -6.85,-14.61 0,-20.78 2.65,5.77 8.09,12.46 0,20.78zm16.35 18.7c-7.68,-6.75 -6.85,-14.61 0,-20.77 2.65,5.76 8.09,12.46 0,20.77zm-17.73 -3.73c-7.59,1.76 -14.82,-7.89 -13.46,-16.22 7.94,0.19 16.67,9.13 13.63,14.75 -2.62,-1.49 -7.15,-5.09 -10.67,-10.46 1.7,3.7 6.98,9.06 10.5,11.93zm-12.71 13.3c-5.1,2.6 -9.96,-4.69 -9.05,-10.9 3.09,2.89 12.48,4.37 9.05,10.9zm-0.24 76.24c-5.1,2.6 -9.96,-4.68 -9.05,-10.9 3.11,2.9 12.48,4.36 9.05,10.9zm12.38 6.56c-4.04,7.79 -12,3.68 -16.78,-2.03 5.2,-0.48 9,-5.41 16.78,2.03zm58.52 -20.82c-9.85,2.73 -15.98,-2.26 -17.38,-11.37 6.27,0.94 14.85,0.05 17.38,11.37zm-21.54 7.32c-7.37,-1.66 -6.17,-13.15 0,-18.69 0.71,5.56 8.98,14.94 0,18.69zm-47.65 -52.38c-8.93,1.94 -14.15,-2.82 -14.95,-11.02 5.55,1.15 13.26,0.79 14.95,11.02zm74.05 -9.67c5.05,0 5.05,7.67 0,7.67 -5.06,0 -5.05,-7.67 0,-7.67zm-45.66 26.07c6.37,0 6.37,9.68 0,9.68 -6.37,0 -6.37,-9.68 0,-9.68zm-39.26 10.22c6.37,0 6.37,9.68 0,9.68 -6.37,0 -6.37,-9.68 0,-9.68zm13.46 -5.89c-8.96,4.93 -16.07,1.49 -19.54,-7.05 6.32,-0.53 14.46,-3.38 19.54,7.05zm89.47 -45.38c1.69,-7.1 -2.04,-11.35 -8.57,-12.11 0.84,4.45 0.43,10.6 8.57,12.11zm-12.21 -10.3c-6.82,-7.61 -5.07,-15.32 2.46,-20.63 1.94,6.04 6.56,13.33 -2.46,20.63zm-12.68 -5.47c-6.82,-7.61 -5.07,-15.32 2.46,-20.63 1.94,6.04 6.56,13.33 -2.46,20.63zm21.09 26.01c-7,-6.86 -14.46,-5.52 -19.86,1.47 5.7,2.12 12.48,6.85 19.86,-1.47zm-10.35 -12.17c-5.22,-5.11 -10.77,-4.11 -14.8,1.1 4.24,1.58 9.3,5.1 14.8,-1.1zm-26.35 7.65c-2.51,-9.91 2.61,-15.93 11.74,-17.14 -1.08,6.25 -0.37,14.85 -11.74,17.14zm3.11 12.4c-1.43,-10.12 4.31,-15.56 13.53,-15.77 -1.75,6.1 -1.98,14.72 -13.53,15.77zm-41.14 -11.56c-9.99,2.17 -15.83,-3.15 -16.72,-12.33 6.21,1.3 14.83,0.88 16.72,12.33zm4.4 -0.33c-7.67,-6.75 -6.85,-14.61 0,-20.77 2.65,5.76 8.09,12.46 0,20.77zm42.48 -36.36c-6.87,-6.05 -6.14,-13.09 0,-18.6 2.37,5.17 7.24,11.16 0,18.6zm-50.18 70.16c0.31,-3.39 -3.19,-4.08 -4.5,-2.72 -3.39,3.52 -0.97,11.06 1.12,14.36 2.37,-5.24 7.83,-4.96 8.47,-9.47 0.3,-2.12 -3.23,-3.78 -5.09,-2.17zm18.15 -36.96c0.31,-3.39 -3.19,-4.08 -4.5,-2.72 -3.38,3.52 -0.97,11.06 1.13,14.36 2.36,-5.24 7.83,-4.96 8.47,-9.46 0.3,-2.12 -3.23,-3.78 -5.09,-2.18zm12.68 36.59c0.31,-3.39 -3.19,-4.08 -4.5,-2.72 -3.38,3.52 -0.97,11.06 1.13,14.36 2.37,-5.24 7.83,-4.97 8.47,-9.47 0.3,-2.12 -3.23,-3.78 -5.09,-2.18zm19.67 -55.98c-7.59,1.75 -14.82,-7.9 -13.46,-16.22 7.94,0.19 16.67,9.12 13.63,14.75 -2.62,-1.49 -7.15,-5.09 -10.67,-10.46 1.7,3.7 6.98,9.06 10.5,11.94zm-45.61 29.76c-3.73,6.83 -15.75,5.83 -21.07,-0.73 5.42,-5.8 17.9,-6.39 20.08,-0.37 -2.86,0.97 -8.56,1.96 -14.91,1.02 3.89,1.19 11.41,0.81 15.9,0.09zm19.75 19.59c-1.99,7.53 -13.91,9.42 -20.63,4.33 3.87,-6.93 15.85,-10.48 19.41,-5.16 -2.54,1.62 -7.84,3.94 -14.23,4.55 4.06,0.23 11.27,-1.94 15.46,-3.72zm25.88 11.93c2.38,8.46 -10.05,13.59 -19.14,10.35 5.29,-3.8 10.33,-17.48 19.14,-10.35zm-31.35 38.38c2.05,7.27 -8.63,11.68 -16.44,8.89 4.56,-3.27 8.87,-15.02 16.44,-8.89zm24.36 0.9c-3.05,6.96 4.91,15.65 13.14,15.84 1.25,-7.65 -5.75,-17.63 -11.7,-15.72 0.96,2.78 3.6,7.77 8.11,12.11 -3.24,-2.29 -7.44,-8.33 -9.56,-12.22zm-9.52 -89.46c0.31,3.39 -3.19,4.08 -4.5,2.72 -3.38,-3.52 -0.97,-11.06 1.13,-14.37 2.36,5.24 7.83,4.97 8.47,9.47 0.3,2.13 -3.23,3.78 -5.1,2.18zm56.09 -9.72c3.27,0.94 2.64,4.46 0.89,5.18 -4.51,1.87 -10.65,-3.13 -12.96,-6.29 5.74,-0.29 7.48,-5.48 11.91,-4.43 2.09,0.49 2.34,4.39 0.17,5.54zm12.69 4.56c1.63,8.64 15.05,7.7 21.74,0.75 -6.43,-1.04 -17.03,-11.06 -21.74,-0.75zm7.99 -12.24c-8.58,-1.93 -7.18,-15.31 0,-21.76 0.82,6.46 10.46,17.39 0,21.76zm-96.39 46.62c-2.22,8.51 -15.54,6.65 -21.74,-0.75 6.49,-0.6 17.75,-9.86 21.74,0.75zm14.24 -2.56c-8.58,-1.93 -7.18,-15.31 0,-21.76 0.82,6.46 10.46,17.4 0,21.76zm48.92 7.79c2.03,2.34 -0.28,5.04 -2,4.85 -4.45,-0.52 -6.59,-7.66 -6.74,-11.44 4.58,2.44 8.62,-1.19 11.48,1.78 1.35,1.4 -0.47,4.85 -2.74,4.81zm-13 29.14c2.95,0.95 2.38,4.46 0.8,5.19 -4.07,1.87 -9.61,-3.13 -11.69,-6.29 5.18,-0.29 6.75,-5.48 10.74,-4.43 1.88,0.49 2.11,4.39 0.15,5.54zm-74 10.72c2.94,0.95 2.38,4.46 0.8,5.18 -4.07,1.87 -9.6,-3.13 -11.69,-6.29 5.18,-0.29 6.75,-5.48 10.74,-4.43 1.88,0.5 2.11,4.39 0.15,5.54zm7.95 -5.84c-6.73,3.43 -13.15,-6.18 -11.94,-14.39 4.09,3.82 16.46,5.76 11.94,14.39zm9.3 0.72c-7.37,-1.66 -6.17,-13.15 0,-18.69 0.71,5.54 8.99,14.94 0,18.69zm4.17 12.94c-2.2,8.32 -15.37,10.41 -22.81,4.78 4.28,-7.66 17.52,-11.58 21.45,-5.7 -2.81,1.8 -8.67,4.36 -15.73,5.02 4.49,0.25 12.46,-2.15 17.09,-4.1zm15.38 1.07c6.4,-7.02 0.47,-20.48 -9.2,-24.02 -4.54,8.55 -0.26,23.19 7.54,23.31 -0.02,-3.68 -1.14,-10.64 -4.74,-17.59 2.92,4.02 5.46,12.84 6.41,18.3zm-28.5 -46.52c-3.74,6.83 -15.76,5.83 -21.07,-0.72 5.42,-5.8 17.9,-6.39 20.08,-0.37 -2.86,0.97 -8.56,1.96 -14.91,1.02 3.89,1.19 11.41,0.81 15.9,0.08z"
       id="path851"
       style="fill:#007c93;fill-opacity:1" /></g></svg>
